<svg width="669" height="236" fill="none" xmlns="http://www.w3.org/2000/svg"><g opacity=".25" fill="#000"><g opacity=".2"><path d="M80.235 21.603a5.852 5.852 0 0 0 4.492-3.41 5.852 5.852 0 0 0-.447-5.62l-2.656-4.057a3.695 3.695 0 0 0-1.828-1.454 3.695 3.695 0 0 0-2.335-.078 3.696 3.696 0 0 0-1.92 1.33 3.693 3.693 0 0 0-.748 2.213v.054a7.312 7.312 0 0 1-2.4 5.305 3.699 3.699 0 0 0-1.153 2.032c-.157.789-.058 1.59.286 2.318a3.694 3.694 0 0 0 1.612 1.69c.71.379 1.506.516 2.302.397l4.795-.72ZM85.065 10.83c-.046.832.285 1.629.931 2.242.615.583 1.448.931 2.347.98.898.047 1.763-.21 2.437-.724.708-.54 1.123-1.296 1.167-2.128.09-1.673-1.38-3.117-3.279-3.22-1.512-.081-2.845.714-3.37 1.886-.134.3-.215.623-.233.964ZM85.908 16.771c-.8 1.784.204 3.977 2.237 4.887 2.033.91 4.337.2 5.136-1.584.8-1.784-.205-3.976-2.238-4.887-2.033-.91-4.336-.2-5.135 1.584ZM82.501 21.952a2.89 2.89 0 0 0-.508.773c-.583 1.302-.203 2.994 1.035 4.13.713.653 1.607 1.032 2.517 1.065.953.035 1.81-.308 2.412-.965.603-.657.87-1.54.752-2.486-.112-.904-.567-1.762-1.28-2.416-1.504-1.379-3.715-1.424-4.928-.1ZM79.88 28.959c1.46-.824 1.89-2.84.959-4.496-.933-1.655-2.88-2.334-4.34-1.512-.532.299-.927.757-1.17 1.3-.423.944-.381 2.142.211 3.196.933 1.655 2.88 2.333 4.34 1.512Z"/></g><g opacity=".3"><path d="M174.018 71.716a5.853 5.853 0 0 0 4.492-3.41 5.853 5.853 0 0 0-.447-5.62l-2.656-4.057a3.696 3.696 0 0 0-1.828-1.454 3.697 3.697 0 0 0-2.335-.077 3.693 3.693 0 0 0-1.92 1.33 3.699 3.699 0 0 0-.749 2.213v.054a7.313 7.313 0 0 1-2.4 5.304 3.696 3.696 0 0 0-1.152 2.032c-.157.79-.058 1.59.286 2.318a3.693 3.693 0 0 0 1.612 1.69c.71.38 1.506.516 2.302.397l4.795-.72ZM178.849 60.943c-.046.833.285 1.629.931 2.242.615.583 1.448.931 2.347.98.898.047 1.763-.21 2.437-.723.708-.54 1.123-1.297 1.167-2.128.09-1.673-1.38-3.118-3.279-3.221-1.512-.08-2.845.714-3.37 1.886-.134.3-.215.624-.233.964ZM179.692 66.885c-.8 1.784.204 3.976 2.237 4.886 2.033.911 4.337.2 5.136-1.584.799-1.784-.205-3.976-2.238-4.887-2.033-.91-4.336-.2-5.135 1.585ZM176.284 72.066a2.867 2.867 0 0 0-.507.773c-.583 1.3-.204 2.993 1.035 4.129.713.654 1.607 1.032 2.517 1.065.953.035 1.809-.308 2.412-.965.602-.657.869-1.54.752-2.486-.112-.904-.567-1.762-1.28-2.415-1.504-1.38-3.715-1.424-4.929-.101ZM173.663 79.072h.001c1.46-.823 1.89-2.84.958-4.496-.932-1.655-2.879-2.333-4.339-1.512-.532.3-.928.758-1.171 1.3-.423.944-.381 2.142.212 3.196.932 1.655 2.879 2.333 4.339 1.512Z"/></g><g opacity=".6"><path d="M498.513 51.458a5.853 5.853 0 0 0 .588-5.609 5.85 5.85 0 0 0-4.404-3.52l-4.776-.84a3.696 3.696 0 0 0-2.311.337c-.719.36-1.291.93-1.654 1.649a3.7 3.7 0 0 0-.344 2.31 3.694 3.694 0 0 0 1.101 2.06l.039.038a7.312 7.312 0 0 1 2.225 5.38 3.719 3.719 0 0 0 .693 2.23 3.695 3.695 0 0 0 1.886 1.379c.766.246 1.574.24 2.336-.019a3.695 3.695 0 0 0 1.864-1.407l2.757-3.988ZM493.962 40.563c.576.603 1.383.906 2.273.855.846-.05 1.67-.418 2.32-1.04.649-.623 1.054-1.43 1.141-2.273.09-.885-.177-1.705-.753-2.306-1.158-1.211-3.218-1.128-4.593.185-1.093 1.048-1.426 2.564-.93 3.75.126.302.307.583.542.829ZM498.872 44.014c.754 1.804 3.04 2.573 5.094 1.714 2.056-.86 3.115-3.026 2.361-4.83-.754-1.803-3.04-2.571-5.095-1.712-2.055.859-3.113 3.025-2.36 4.828ZM500.319 50.045c.024.316.098.617.216.9.55 1.315 2.043 2.196 3.719 2.07.964-.072 1.852-.465 2.499-1.106.678-.67 1.014-1.53.947-2.419-.066-.889-.528-1.688-1.298-2.25-.736-.537-1.672-.792-2.637-.72-2.035.154-3.581 1.735-3.446 3.525ZM503.633 56.75c.399-1.628-.777-3.322-2.622-3.776-1.845-.453-3.671.502-4.072 2.129a2.773 2.773 0 0 0 .146 1.743c.4.955 1.302 1.744 2.476 2.034 1.845.452 3.671-.503 4.072-2.13Z"/></g><g opacity=".2"><path d="M13.793 20.83a6.455 6.455 0 0 0 5.33-3.206 6.455 6.455 0 0 0 .176-6.218l-2.432-4.764a4.076 4.076 0 0 0-1.833-1.81 4.076 4.076 0 0 0-2.55-.363 4.077 4.077 0 0 0-2.264 1.232 4.074 4.074 0 0 0-1.084 2.338l-.006.059a8.065 8.065 0 0 1-3.26 5.533 4.082 4.082 0 0 0-1.505 2.092 4.076 4.076 0 0 0 .039 2.576 4.074 4.074 0 0 0 1.567 2.045c.734.5 1.591.744 2.478.708l5.344-.221ZM20.367 9.588c-.148.908.12 1.82.756 2.569.605.713 1.478 1.193 2.458 1.352.979.16 1.959-.02 2.759-.504.84-.508 1.384-1.288 1.531-2.195.298-1.824-1.144-3.583-3.214-3.921-1.648-.268-3.205.446-3.92 1.67a2.98 2.98 0 0 0-.37 1.029ZM20.59 16.204c-1.087 1.862-.246 4.385 1.875 5.624 2.122 1.24 4.733.733 5.82-1.129 1.088-1.862.246-4.384-1.875-5.624-2.122-1.239-4.732-.732-5.82 1.13ZM16.237 21.482c-.262.231-.478.497-.648.788-.794 1.358-.578 3.259.646 4.65.704.802 1.64 1.323 2.634 1.468 1.041.15 2.02-.123 2.76-.773.738-.65 1.135-1.586 1.119-2.638-.016-1.004-.413-1.999-1.118-2.8-1.486-1.69-3.905-2.002-5.393-.695ZM12.533 28.856c1.7-.73 2.41-2.89 1.585-4.817-.827-1.926-2.882-2.9-4.58-2.173A3.058 3.058 0 0 0 8.1 23.153c-.576.985-.672 2.304-.147 3.53.827 1.926 2.88 2.9 4.58 2.173Z"/></g><g opacity=".4"><path d="M283.339 88.282a5.742 5.742 0 0 0 .636-5.498 5.743 5.743 0 0 0-4.286-3.5l-4.678-.875a3.625 3.625 0 0 0-2.271.308 3.62 3.62 0 0 0-1.64 1.6 3.617 3.617 0 0 0-.362 2.265c.126.78.492 1.482 1.059 2.033l.038.037a7.179 7.179 0 0 1 2.128 5.303 3.628 3.628 0 0 0 .656 2.196 3.63 3.63 0 0 0 1.837 1.372c.749.25 1.542.252 2.292.006a3.626 3.626 0 0 0 1.845-1.362l2.746-3.885ZM278.989 77.543c.559.598 1.348.904 2.221.863.831-.04 1.644-.393 2.288-.997.644-.604 1.05-1.391 1.143-2.218.098-.868-.156-1.675-.715-2.272-1.124-1.2-3.146-1.14-4.508.135-1.084 1.017-1.426 2.501-.953 3.67.121.297.296.575.524.819ZM283.771 80.981c.721 1.778 2.956 2.556 4.981 1.734 2.026-.822 3.088-2.937 2.366-4.714-.721-1.778-2.956-2.556-4.982-1.734-2.025.822-3.086 2.937-2.365 4.714ZM285.127 86.914c.02.31.09.607.203.885.525 1.296 1.982 2.177 3.628 2.07.947-.06 1.822-.436 2.464-1.059.672-.651 1.011-1.49.955-2.364-.057-.873-.501-1.662-1.251-2.221-.717-.535-1.633-.795-2.58-.734-1.999.13-3.533 1.665-3.419 3.423ZM288.309 93.53v-.002c.408-1.593-.728-3.267-2.534-3.732-1.806-.464-3.608.455-4.018 2.047-.15.58-.094 1.172.125 1.712.382.94 1.259 1.725 2.408 2.021 1.806.463 3.609-.455 4.019-2.047Z"/></g><path d="M650.804 223.158a5.743 5.743 0 0 0 5.377 1.308 5.743 5.743 0 0 0 4.003-3.821l1.444-4.535a3.63 3.63 0 0 0-.026-2.292 3.622 3.622 0 0 0-1.386-1.825 3.628 3.628 0 0 0-2.202-.638 3.623 3.623 0 0 0-2.148.8l-.042.034a7.175 7.175 0 0 1-5.524 1.458 3.632 3.632 0 0 0-2.261.38 3.633 3.633 0 0 0-1.588 1.654 3.624 3.624 0 0 0-.288 2.274c.151.775.54 1.466 1.124 1.998l3.517 3.205ZM661.998 220.164c-.662.481-1.064 1.226-1.13 2.098-.064.829.187 1.679.707 2.393.52.713 1.251 1.213 2.06 1.408.849.204 1.682.051 2.342-.43 1.33-.967 1.52-2.981.422-4.491-.875-1.201-2.306-1.723-3.523-1.397a2.64 2.64 0 0 0-.878.419ZM657.996 224.486c-1.853.496-2.901 2.618-2.335 4.729.566 2.112 2.534 3.426 4.387 2.93 1.853-.497 2.9-2.619 2.334-4.731-.565-2.111-2.533-3.425-4.386-2.928ZM651.941 225.1a2.863 2.863 0 0 0-.903.092c-1.351.362-2.405 1.699-2.502 3.345-.056.948.209 1.863.748 2.577.563.747 1.354 1.187 2.228 1.238.873.052 1.711-.292 2.358-.967.619-.645.991-1.523 1.047-2.47.118-1.999-1.217-3.711-2.976-3.815ZM644.985 227.444c1.531.602 3.333-.319 4.017-2.054.682-1.735-.007-3.637-1.536-4.24a2.727 2.727 0 0 0-1.715-.087c-.981.263-1.867 1.037-2.302 2.141-.683 1.735.006 3.637 1.536 4.24Z"/><g opacity=".5"><path d="M361.306 91.234a6.454 6.454 0 0 0-2.158-5.834 6.454 6.454 0 0 0-6.076-1.33l-5.134 1.501a4.076 4.076 0 0 0-2.12 1.463 4.079 4.079 0 0 0-.831 2.44 4.08 4.08 0 0 0 .788 2.453 4.075 4.075 0 0 0 2.096 1.5l.057.017a8.066 8.066 0 0 1 4.829 4.234 4.07 4.07 0 0 0 1.774 1.868c.783.42 1.661.572 2.539.442a4.072 4.072 0 0 0 2.301-1.16 4.083 4.083 0 0 0 1.157-2.302l.778-5.291ZM351.484 82.68c.864.316 1.811.222 2.665-.264.813-.461 1.448-1.23 1.787-2.162.338-.932.345-1.928.018-2.805-.343-.92-1.008-1.6-1.871-1.913-1.737-.632-3.733.456-4.451 2.427-.57 1.57-.159 3.232.91 4.162.273.238.589.427.942.556ZM358.026 83.695c1.627 1.415 4.262 1.06 5.875-.794 1.613-1.853 1.602-4.513-.025-5.928-1.626-1.416-4.261-1.06-5.875.794-1.612 1.854-1.601 4.513.025 5.928ZM362.4 88.955c.178.3.399.562.653.784 1.187 1.032 3.094 1.175 4.69.231.919-.542 1.605-1.364 1.932-2.315.343-.994.256-2.008-.245-2.854-.5-.847-1.346-1.412-2.383-1.592-.99-.171-2.041.033-2.959.576-1.938 1.146-2.695 3.465-1.688 5.17ZM368.955 93.968c-.401-1.806-2.391-2.907-4.438-2.455-2.046.454-3.386 2.29-2.988 4.095.145.658.502 1.222.996 1.652.861.75 2.14 1.09 3.442.803 2.046-.454 3.386-2.29 2.988-4.095Z"/></g><g opacity=".3"><path d="M117.132 86.961a6.457 6.457 0 0 0 3.207-5.33 6.454 6.454 0 0 0-2.757-5.576l-4.38-3.07a4.076 4.076 0 0 0-2.467-.741 4.075 4.075 0 0 0-2.423.875 4.08 4.08 0 0 0-1.424 2.148 4.08 4.08 0 0 0 .138 2.573l.022.055a8.068 8.068 0 0 1-.289 6.416 4.075 4.075 0 0 0-.35 2.553 4.08 4.08 0 0 0 1.241 2.258c.65.604 1.46.975 2.343 1.073a4.074 4.074 0 0 0 2.52-.536l4.619-2.698ZM117.674 73.949c.294.871.959 1.552 1.872 1.916.868.346 1.864.362 2.804.044.94-.318 1.722-.936 2.202-1.738.504-.843.619-1.787.325-2.657-.592-1.75-2.689-2.63-4.676-1.959-1.582.536-2.623 1.896-2.681 3.311a2.99 2.99 0 0 0 .154 1.083ZM120.969 79.69c-.089 2.155 1.835 3.99 4.29 4.091 2.455.102 4.525-1.568 4.614-3.723.089-2.154-1.836-3.989-4.291-4.09-2.455-.102-4.524 1.568-4.613 3.723ZM119.596 86.392a3.18 3.18 0 0 0-.204 1c-.065 1.572 1.015 3.15 2.749 3.807.997.378 2.068.4 3.014.062.991-.354 1.728-1.055 2.076-1.974.349-.92.261-1.934-.246-2.856-.484-.88-1.301-1.572-2.299-1.95-2.105-.798-4.388.06-5.09 1.912ZM119.777 94.642c1.159-1.44.775-3.683-.856-4.998-1.632-1.314-3.904-1.213-5.064.225a3.059 3.059 0 0 0-.668 1.81c-.047 1.14.486 2.351 1.524 3.189 1.632 1.314 3.904 1.213 5.064-.226Z"/></g><g opacity=".6"><path d="M414.296 31.631a5.72 5.72 0 0 0 1.848-5.191 5.72 5.72 0 0 0-3.374-4.356l-4.343-1.895a3.61 3.61 0 0 0-2.272-.21 3.61 3.61 0 0 0-1.951 1.186c-.509.599-.805 1.33-.857 2.115a3.61 3.61 0 0 0 .572 2.21l.028.044a7.145 7.145 0 0 1 .878 5.621 3.623 3.623 0 0 0 1.62 4.02c.67.41 1.439.59 2.222.52a3.606 3.606 0 0 0 2.094-.909l3.535-3.155ZM412.478 20.239c.408.705 1.105 1.179 1.961 1.334.815.148 1.683-.013 2.443-.455.76-.441 1.33-1.114 1.606-1.895.289-.82.224-1.66-.186-2.365-.821-1.416-2.796-1.81-4.404-.878-1.279.743-1.943 2.107-1.745 3.346.05.317.157.625.325.913ZM416.348 24.645c.302 1.886 2.296 3.141 4.445 2.798 2.149-.344 3.653-2.158 3.351-4.045-.301-1.886-2.296-3.14-4.445-2.797-2.149.344-3.652 2.158-3.351 4.044ZM416.335 30.704c-.05.306-.049.61-.002.904.22 1.376 1.436 2.556 3.057 2.822.932.153 1.866-.016 2.628-.476.798-.482 1.314-1.22 1.455-2.08.141-.86-.114-1.724-.716-2.435-.575-.68-1.406-1.137-2.339-1.29-1.968-.322-3.799.824-4.083 2.555ZM417.942 37.835h.001c.753-1.455.025-3.334-1.623-4.189-1.648-.854-3.602-.367-4.356 1.086a2.707 2.707 0 0 0-.262 1.69c.16.998.835 1.955 1.883 2.5 1.649.853 3.603.366 4.357-1.087Z"/></g><g opacity=".8"><path d="M584.835 105.548a5.763 5.763 0 0 0 5.37 1.416 5.763 5.763 0 0 0 4.089-3.757l1.535-4.521a3.64 3.64 0 0 0 .019-2.3 3.644 3.644 0 0 0-1.356-1.858 3.64 3.64 0 0 0-2.197-.683 3.64 3.64 0 0 0-2.171.762l-.042.033a7.199 7.199 0 0 1-5.57 1.356 3.645 3.645 0 0 0-2.275.34 3.64 3.64 0 0 0-1.625 1.628 3.64 3.64 0 0 0-.333 2.276c.137.78.514 1.481 1.089 2.026l3.467 3.282ZM596.123 102.758c-.673.471-1.09 1.21-1.174 2.083-.079.831.156 1.689.664 2.415.507.725 1.232 1.241 2.039 1.452.849.221 1.687.084 2.359-.386 1.352-.945 1.581-2.962.509-4.497-.855-1.222-2.28-1.774-3.508-1.47a2.67 2.67 0 0 0-.889.403ZM592.026 107.017c-1.869.463-2.96 2.572-2.433 4.701.527 2.129 2.476 3.485 4.345 3.023 1.869-.463 2.96-2.572 2.433-4.701-.527-2.129-2.476-3.485-4.345-3.023ZM585.939 107.518a2.861 2.861 0 0 0-.908.075c-1.363.337-2.445 1.658-2.575 3.308-.075.949.174 1.872.701 2.599.551.76 1.336 1.216 2.211 1.285.876.069 1.723-.26 2.385-.925.634-.635 1.023-1.508 1.097-2.458.157-2.003-1.149-3.746-2.911-3.884ZM578.915 109.736c1.525.633 3.35-.257 4.069-1.984.718-1.727.063-3.649-1.459-4.283a2.738 2.738 0 0 0-1.719-.12c-.989.245-1.893 1.005-2.351 2.103-.718 1.728-.063 3.649 1.46 4.284Z"/></g><g opacity=".5"><path d="M433.753 100.119a6.145 6.145 0 0 0-.939-5.847 6.145 6.145 0 0 0-5.429-2.364l-5.072.456a3.882 3.882 0 0 0-2.25.975 3.882 3.882 0 0 0-1.226 2.125c-.17.827-.072 1.67.284 2.436a3.877 3.877 0 0 0 1.68 1.788l.05.027a7.68 7.68 0 0 1 3.729 4.845 3.881 3.881 0 0 0 1.312 2.072c.654.535 1.446.84 2.29.88a3.874 3.874 0 0 0 2.363-.658 3.882 3.882 0 0 0 1.505-1.937l1.703-4.798ZM426.158 90.319c.749.453 1.65.54 2.537.245.845-.282 1.579-.882 2.068-1.69.488-.809.678-1.738.535-2.616-.151-.923-.647-1.68-1.395-2.133-1.506-.91-3.571-.262-4.605 1.446-.822 1.361-.744 2.99.083 4.055.211.272.471.508.777.693ZM432.081 92.473c1.258 1.621 3.785 1.775 5.633.342 1.848-1.434 2.328-3.92 1.07-5.542-1.258-1.621-3.785-1.774-5.633-.34-1.848 1.432-2.328 3.918-1.07 5.54ZM435.196 98.192h.001c.11.313.268.599.465.852.917 1.183 2.672 1.668 4.337 1.082.958-.338 1.751-.98 2.231-1.806.503-.866.609-1.828.298-2.711-.311-.883-.997-1.567-1.932-1.926-.893-.343-1.912-.346-2.87-.008-2.021.712-3.156 2.738-2.53 4.517ZM440.392 104.082c-.041-1.76-1.697-3.155-3.692-3.11-1.994.046-3.585 1.514-3.545 3.272.014.642.243 1.235.625 1.727.666.859 1.797 1.412 3.066 1.384 1.995-.046 3.585-1.514 3.546-3.273Z"/></g><g opacity=".7"><path d="M563.11 58.178a5.575 5.575 0 0 0 3.288-4.249 5.577 5.577 0 0 0-1.803-5.06l-3.448-3.075a3.52 3.52 0 0 0-2.042-.884 3.523 3.523 0 0 0-2.167.506c-.653.4-1.15.988-1.437 1.7a3.523 3.523 0 0 0-.141 2.22l.014.05a6.965 6.965 0 0 1-.895 5.474 3.53 3.53 0 0 0-.557 2.155 3.52 3.52 0 0 0 .837 2.062 3.521 3.521 0 0 0 1.902 1.156 3.52 3.52 0 0 0 2.216-.206l4.233-1.85ZM564.885 47.071c.164.778.666 1.428 1.412 1.832.71.385 1.563.498 2.401.32.838-.178 1.571-.628 2.064-1.268.517-.672.711-1.47.546-2.247-.331-1.561-2.041-2.526-3.814-2.151-1.41.3-2.44 1.362-2.633 2.57-.049.309-.044.627.024.944ZM567.132 52.328c-.294 1.84 1.172 3.608 3.268 3.942 2.096.334 4.039-.89 4.333-2.73.293-1.838-1.173-3.606-3.269-3.94-2.096-.335-4.039.89-4.332 2.728ZM565.281 57.938c-.139.268-.23.55-.276.837-.214 1.342.554 2.805 1.975 3.543.818.425 1.734.551 2.579.357.886-.204 1.589-.731 1.98-1.485.392-.754.419-1.633.076-2.474-.327-.804-.957-1.48-1.775-1.905-1.725-.896-3.77-.39-4.559 1.127ZM564.603 65.033h.001c1.139-1.12 1.036-3.08-.231-4.374-1.268-1.291-3.227-1.433-4.366-.317a2.64 2.64 0 0 0-.756 1.486c-.155.973.18 2.065.986 2.888 1.268 1.292 3.226 1.434 4.366.317Z"/></g><g opacity=".9"><path d="M637.337 139.932a5.386 5.386 0 0 0 5.156.607 5.389 5.389 0 0 0 3.294-4.014l.829-4.386a3.403 3.403 0 0 0-.284-2.132 3.4 3.4 0 0 0-1.499-1.542 3.402 3.402 0 0 0-2.123-.344 3.406 3.406 0 0 0-1.91.989l-.034.036a6.734 6.734 0 0 1-4.98 1.985 3.415 3.415 0 0 0-3.352 2.332 3.404 3.404 0 0 0-.011 2.151c.23.704.67 1.304 1.274 1.733l3.64 2.585ZM647.422 135.872c-.562.523-.851 1.262-.814 2.082.035.779.365 1.542.93 2.148.565.605 1.303.988 2.079 1.077.814.094 1.572-.143 2.132-.666 1.129-1.052 1.076-2.949-.117-4.23-.952-1.019-2.343-1.343-3.44-.901-.28.113-.541.276-.77.49ZM644.186 140.351c-1.669.673-2.404 2.768-1.637 4.67.767 1.902 2.749 2.903 4.418 2.23 1.67-.673 2.404-2.768 1.637-4.671-.767-1.902-2.749-2.902-4.418-2.229ZM638.618 141.611a2.657 2.657 0 0 0-.83.189c-1.218.49-2.047 1.855-1.951 3.399.055.889.407 1.711.989 2.314.61.632 1.397.952 2.216.901.819-.051 1.56-.467 2.087-1.169.503-.671.749-1.53.693-2.419-.117-1.876-1.554-3.318-3.204-3.215ZM632.405 144.584v.001c1.494.386 3.068-.677 3.507-2.37.439-1.693-.419-3.386-1.912-3.774a2.557 2.557 0 0 0-1.606.114c-.884.356-1.621 1.178-1.901 2.255-.439 1.693.419 3.386 1.912 3.774Z"/></g><path d="M592.235 202.215a5.389 5.389 0 0 0 5.156.608 5.389 5.389 0 0 0 3.294-4.014l.829-4.387a3.4 3.4 0 0 0-.284-2.131 3.402 3.402 0 0 0-1.499-1.543 3.402 3.402 0 0 0-2.123-.344 3.4 3.4 0 0 0-1.91.99l-.034.035a6.73 6.73 0 0 1-4.98 1.986 3.398 3.398 0 0 0-2.061.611 3.395 3.395 0 0 0-1.291 1.721 3.4 3.4 0 0 0-.011 2.15 3.4 3.4 0 0 0 1.274 1.733l3.64 2.585ZM602.32 198.155c-.562.524-.852 1.263-.815 2.082a3.4 3.4 0 0 0 .931 2.149 3.4 3.4 0 0 0 2.078 1.077c.815.094 1.573-.143 2.133-.667 1.129-1.051 1.076-2.948-.117-4.23-.952-1.018-2.344-1.343-3.44-.901-.28.113-.541.276-.77.49ZM599.084 202.635c-1.669.673-2.404 2.768-1.637 4.67.767 1.902 2.749 2.902 4.418 2.229 1.67-.673 2.404-2.768 1.637-4.67-.767-1.902-2.749-2.902-4.418-2.229ZM593.516 203.895a2.65 2.65 0 0 0-.83.188c-1.218.491-2.047 1.855-1.951 3.4.055.889.407 1.711.989 2.314.61.632 1.397.951 2.216.9.819-.051 1.56-.466 2.087-1.169.503-.671.749-1.53.693-2.419-.117-1.875-1.554-3.317-3.204-3.214ZM587.303 206.868c1.494.387 3.067-.676 3.507-2.369.439-1.694-.419-3.387-1.912-3.774a2.543 2.543 0 0 0-1.606.114c-.884.356-1.621 1.178-1.902 2.255-.438 1.693.42 3.386 1.913 3.774Z"/></g><path d="M509.212 133.191a9.91 9.91 0 0 1 7.34 6.11 9.906 9.906 0 0 1-1.183 9.476l.405.293-.405-.293-5.043 6.996a6.076 6.076 0 0 1-3.111 2.253 6.07 6.07 0 0 1-3.84-.045 6.068 6.068 0 0 1-3.056-2.327 6.067 6.067 0 0 1-1.066-3.69 13.504 13.504 0 0 0-3.914-10.017l-.004-.004-.067-.066v-.001a6.072 6.072 0 0 1-1.743-3.422 6.075 6.075 0 0 1 .641-3.787 6.069 6.069 0 0 1 2.774-2.657l-.216-.451.216.451a6.071 6.071 0 0 1 3.809-.48l8.463 1.661ZM508.436 129.196c.897.976 2.176 1.494 3.623 1.439 1.38-.052 2.747-.629 3.843-1.637 1.095-1.008 1.783-2.321 1.951-3.692l-9.417 3.89Zm0 0a4.339 4.339 0 0 1-.839-1.34c-.754-1.91-.186-4.38 1.661-6.081 2.332-2.142 5.675-2.147 7.465-.199v.001m-8.287 7.619 8.287-7.619m0 0c.897.974 1.306 2.291 1.13 3.729l-1.13-3.729ZM525.491 138.604c-3.487 1.377-7.195-.022-8.349-2.944-1.154-2.921.597-6.477 4.083-7.854 3.488-1.377 7.197.022 8.351 2.943 1.154 2.921-.598 6.478-4.085 7.855ZM531.681 145.921c.079 1.426-.483 2.802-1.614 3.878-1.082 1.03-2.559 1.653-4.166 1.742h-.001c-2.798.155-5.204-1.366-6.047-3.498a4.632 4.632 0 0 1-.318-1.451l-.002-.028c-.139-2.843 2.384-5.402 5.783-5.59 1.607-.089 3.144.367 4.333 1.271 1.242.945 1.953 2.251 2.032 3.676Zm0 0 .5-.027m-.5.027.5-.027m0 0c.087 1.583-.541 3.098-1.769 4.267l1.769-4.267Zm-2.23-4.046ZM524.22 158.497c.655-2.55-1.142-5.346-4.184-6.159l4.184 6.159Zm0 0-.01.036c-.683 2.556-3.647 4.102-6.704 3.288l6.714-3.324Zm-10.888-2.872a4.427 4.427 0 0 0 .181 2.792c.614 1.556 2.061 2.886 3.993 3.404l-4.174-6.196Zm0 0c.683-2.555 3.647-4.102 6.704-3.287l-6.704 3.287Z" fill="#78C0DE" stroke="#000"/><path d="m447.819 194.404.47-.472 11.387 11.385-.277.275-3.02 3.015c-1.934 1.939-6.052.959-9.198-2.183-3.144-3.148-4.123-7.264-2.188-9.198l2.821-2.822h.005Z" fill="#5A6E7F"/><path d="m451.076 191.194 11.386 11.378-2.786 2.745-11.387-11.385.326-.325.009.005 2.452-2.418Z" fill="#78C0DE"/><path d="M511.636 97C536.138 97 556 116.867 556 141.371c0 24.503-19.862 44.366-44.364 44.366a44.14 44.14 0 0 1-24.553-7.418l-24.621 24.253-11.386-11.378 24.46-24.092c-5.187-7.26-8.271-16.129-8.271-25.731 0-24.504 19.862-44.371 44.371-44.371Zm-.607 75.567c17.227 0 31.197-13.965 31.197-31.196 0-17.232-13.97-31.197-31.197-31.197-17.231 0-31.198 13.965-31.198 31.197 0 17.231 13.967 31.196 31.198 31.196Z" fill="#333"/></svg>